<svg width="2115" height="1729" viewBox="0 0 2115 1729" fill="none" xmlns="http://www.w3.org/2000/svg">
<g clip-path="url(#clip0)">
<path d="M437 1610.38C437 1610.38 763 1736.38 1200 1693.38C1636 1650.38 1915 1510.38 2051 1335.38C2187 1159.38 2029 872.38 1957 812.38C1884 752.38 2008 543.38 1974 416.38C1940 289.38 1699 106.38 1132 87.38C564 67.38 382 217.38 337 348.38C292 478.38 444 675.38 414 752.38C384 829.38 163 919.38 199 1219.38C235 1520.38 437 1610.38 437 1610.38Z" fill="#EEE5FD"/>
<path d="M2075 1009.38C2072 1000.38 2068 991.38 2065 982.38C1819 975.38 1639 934.38 1520 817.38C1389 688.38 1328 469.38 1326 101.38C1317 100.38 1308 99.38 1298 98.38C1299 294.38 1317 449.38 1353 572.38C1386 686.38 1435 772.38 1501 837.38C1627 962.38 1817 1004.38 2075 1009.38ZM1947 658.38C1949 648.38 1951 639.38 1953 630.38C1798 630.38 1695 610.38 1634 558.38C1572 506.38 1544 420.38 1538 261.38C1536 222.38 1540 182.38 1548 140.38L1521 134.38C1513 178.38 1509 221.38 1511 262.38C1514 338.38 1522 398.38 1536 447.38C1553 505.38 1579 547.38 1616 579.38C1683 635.38 1787 658.38 1947 658.38Z" fill="#F7F2FF"/>
<path d="M554 1645.38C563 1648.38 573 1650.38 583 1652.38C632 1577.38 661 1485.38 670 1369.38C681 1237.38 666 1074.38 624 871.38C615 871.38 606 870.38 596 869.38C675 1249.38 661 1486.38 555 1643.38C554.895 1644.14 554.544 1644.84 554 1645.38V1645.38ZM344 834.38C337 840.38 331 847.38 324 854.38C376 937.38 413 1021.38 427 1102.38C452 1258.38 442 1348.38 392 1412.38C370 1440.38 338 1464.38 297 1484.38C302.097 1492.45 307.779 1500.14 314 1507.38C356 1485.38 389 1460.38 413 1429.38C444 1390.38 461 1344.38 466 1283.38C470 1233.38 466 1172.38 454 1097.38C440 1010.38 400 921.38 344 834.38Z" fill="#F7F2FF"/>
<path d="M1351 1702.38C1351 1702.38 1324 1514.38 1457 1447.38C1589 1381.38 1503 1282.38 1557 1212.38C1611 1143.38 1766 1119.38 1796 999.38C1796 999.38 1799 1188.38 1750 1296.38C1700 1404.38 1655 1430.38 1669 1530.38C1682 1630.38 1537 1773.38 1351 1702.38Z" fill="#A773FA"/>
<path d="M1394 1675.38C1394 1675.38 1551 1581.38 1584 1433.38C1622 1268.38 1726 1253.38 1734 1139.38" stroke="#FEFEFE" stroke-width="3.1252"/>
<path d="M1408 1577.38C1408 1577.38 1449 1471.38 1543 1461.38C1637 1450.38 1626 1483.38 1696 1445.38C1767 1407.38 1823 1430.38 1882 1441.38C1882 1441.38 1805 1490.38 1743 1557.38C1692 1612.38 1608 1677.38 1541 1683.38C1455 1691.38 1359 1633.38 1359 1633.38L1408 1577.38Z" fill="#B48BF7"/>
<path d="M1377 1643.38C1377 1643.38 1485 1546.38 1610 1526.38C1735 1505.38 1806 1453.38 1806 1453.38" stroke="#FEFEFE" stroke-width="3.1252"/>
<path d="M1152 960.38C1211.09 960.38 1259 912.474 1259 853.38C1259 794.286 1211.09 746.38 1152 746.38C1092.91 746.38 1045 794.286 1045 853.38C1045 912.474 1092.91 960.38 1152 960.38Z" fill="#A876FA"/>
<path d="M1166 746.38C1194.37 746.412 1221.57 757.695 1241.63 777.755C1261.68 797.814 1272.97 825.012 1273 853.38C1273 912.38 1225 959.38 1166 959.38H1159C1215 955.38 1259 909.38 1259 853.38C1259.01 826.187 1248.69 800.006 1230.12 780.139C1211.56 760.272 1186.13 748.204 1159 746.38H1166Z" fill="#9A62F5"/>
<path d="M1152 942.38C1201.15 942.38 1241 902.533 1241 853.38C1241 804.227 1201.15 764.38 1152 764.38C1102.85 764.38 1063 804.227 1063 853.38C1063 902.533 1102.85 942.38 1152 942.38Z" fill="#9A62F5"/>
<path d="M1152 933.38C1196.18 933.38 1232 897.563 1232 853.38C1232 809.197 1196.18 773.38 1152 773.38C1107.82 773.38 1072 809.197 1072 853.38C1072 897.563 1107.82 933.38 1152 933.38Z" fill="#A876FA"/>
<path d="M1197 756.38C1211 762.38 1223 772.38 1233 783.38L1132 958.38C1116.91 955.341 1102.61 949.213 1090 940.38L1197 756.38Z" fill="#FEFEFE" fill-opacity="0.2"/>
<path d="M910 1702.38C910 1702.38 938 1514.38 805 1447.38C672 1381.38 758 1282.38 705 1212.38C651 1143.38 496 1119.38 465 999.38C465 999.38 463 1188.38 512 1296.38C562 1404.38 606 1430.38 593 1530.38C580 1630.38 725 1773.38 910 1702.38Z" fill="#A773FA"/>
<path d="M868 1675.38C868 1675.38 711 1581.38 678 1433.38C640 1268.38 536 1253.38 527 1139.38" stroke="#FEFEFE" stroke-width="3.1252"/>
<path d="M853 1577.38C853 1577.38 813 1471.38 719 1461.38C625 1450.38 636 1483.38 566 1445.38C495 1407.38 439 1430.38 380 1441.38C380 1441.38 457 1490.38 519 1557.38C569 1612.38 654 1677.38 721 1683.38C806 1691.38 903 1633.38 903 1633.38L853 1577.38Z" fill="#B48BF7"/>
<path d="M884 1643.38C884 1643.38 777 1546.38 652 1526.38C527 1505.38 455 1453.38 455 1453.38" stroke="#FEFEFE" stroke-width="3.1252"/>
<path d="M1478 1178.38H794V1728.38H1478V1178.38Z" fill="#A876FA"/>
<path d="M1532.75 1085.38H740V1179.68H1532.75V1085.38Z" fill="#9A62F5"/>
<path d="M740 1087.38H1533L1405 993.38H868L740 1087.38Z" fill="#A876FA"/>
<path d="M1168 747.38L1180 750.38L1077 929.38C1074.03 926.298 1071.36 922.951 1069 919.38L1168 747.38Z" fill="#FEFEFE" fill-opacity="0.2"/>
<path d="M880 1286.38H914C919.726 1286.37 925.433 1287.04 931 1288.38C936.339 1289.64 941.2 1292.42 945 1296.38C948.456 1300.92 951.158 1305.98 953 1311.38C955 1317.38 956 1324.38 956 1333.38C955.937 1339.76 955.267 1346.12 954 1352.38C951 1359.38 948 1364.38 944 1368.38C940.392 1371.86 935.894 1374.29 931 1375.38C927 1377.38 921 1377.38 915 1377.38H880V1286.38ZM898 1301.38V1362.38H912C917 1362.38 921 1362.38 923 1361.38C926 1360.38 929 1359.38 931 1357.38C933 1355.38 934 1352.38 935 1348.38C937 1344.38 937 1339.38 937 1332.38C937 1325.38 937 1319.38 935 1315.38C933.961 1312.37 932.25 1309.63 929.998 1307.38C927.746 1305.13 925.011 1303.42 922 1302.38C919 1302.38 914 1301.38 907 1301.38H898Z" fill="#FEFEFE"/>
<path d="M968 1332.38C968.092 1324.55 969.443 1316.78 972 1309.38C974.057 1304.46 977.123 1300.04 981 1296.38C984.419 1292.93 988.501 1290.21 993 1288.38C999.035 1285.89 1005.48 1284.54 1012 1284.38C1026 1284.38 1037 1289.38 1045 1297.38C1053 1305.38 1057 1317.38 1057 1332.38C1057 1347.38 1053 1358.38 1045 1366.38C1037 1375.38 1026 1379.38 1013 1379.38C999 1379.38 988 1375.38 980 1367.38C972 1358.38 968 1347.38 968 1332.38ZM987 1332.38C987 1342.38 990 1350.38 994 1355.38C996.439 1357.96 999.388 1360 1002.66 1361.38C1005.93 1362.75 1009.45 1363.44 1013 1363.38C1020 1363.38 1026 1360.38 1031 1355.38C1035 1350.38 1038 1342.38 1038 1331.38C1038 1321.38 1035 1313.38 1031 1308.38C1026 1303.38 1020 1300.38 1013 1300.38C1009.45 1300.32 1005.93 1301.01 1002.66 1302.38C999.388 1303.76 996.439 1305.8 994 1308.38C990 1313.38 987 1321.38 987 1332.38Z" fill="#FEFEFE"/>
<path d="M1071 1377.38V1286.38H1089L1127 1347.38V1286.38H1144V1377.38H1125L1088 1317.38V1377.38H1071Z" fill="#FEFEFE"/>
<path d="M1245 1377.38H1225L1218 1357.38H1181L1173 1377.38H1154L1189 1286.38H1209L1245 1377.38ZM1212 1341.38L1199 1307.38L1187 1341.38H1212Z" fill="#FEFEFE"/>
<path d="M1266 1377.38V1301.38H1239V1286.38H1312V1301.38H1285V1377.38H1266Z" fill="#FEFEFE"/>
<path d="M1324 1377.38V1286.38H1391V1301.38H1342V1322.38H1388V1337.38H1342V1362.38H1393V1377.38H1324Z" fill="#FEFEFE"/>
<path d="M898 1435.38H1375.22C1388.48 1435.38 1399.22 1438.96 1399.22 1443.38V1443.9C1399.22 1448.32 1388.48 1451.9 1375.22 1451.9H898C884.75 1451.9 874 1448.32 874 1443.9V1443.38C874 1438.96 884.75 1435.38 898 1435.38Z" fill="#FEFEFE"/>
<path d="M979 1048.38H1294L1243 1032.38H1030L979 1048.38Z" fill="#9A62F5"/>
<path d="M1096 1727.38C1596.37 1727.38 2002 1725.59 2002 1723.38C2002 1721.17 1596.37 1719.38 1096 1719.38C595.63 1719.38 190 1721.17 190 1723.38C190 1725.59 595.63 1727.38 1096 1727.38Z" fill="#A876FA"/>
<path d="M248.004 1156C252.004 1138 258.004 1132 276.004 1128C281.004 1127 285.004 1123 285.004 1118C285.072 1115.39 284.2 1112.85 282.548 1110.83C280.896 1108.81 278.573 1107.45 276.004 1107C258.004 1103 252.004 1097 248.004 1079C247.409 1076.5 246.011 1074.27 244.024 1072.64C242.036 1071.02 239.57 1070.09 237.004 1070C232.004 1070 228.004 1074 227.004 1079C223.004 1097 217.004 1103 199.004 1107C196.434 1107.45 194.111 1108.81 192.459 1110.83C190.807 1112.85 189.936 1115.39 190.004 1118C190.004 1123 194.004 1127 199.004 1128C217.004 1132 223.004 1138 227.004 1156C228.004 1161 232.004 1165 237.004 1165C239.57 1164.91 242.036 1163.98 244.024 1162.36C246.011 1160.73 247.409 1158.5 248.004 1156V1156ZM440.004 1029H423.004C422.078 1029.02 421.158 1028.86 420.299 1028.51C419.44 1028.17 418.66 1027.65 418.005 1027C417.351 1026.34 416.836 1025.56 416.492 1024.7C416.148 1023.85 415.982 1022.93 416.004 1022C416.004 1019 419.004 1016 423.004 1016H440.004C441.56 1016.11 443.026 1016.77 444.129 1017.87C445.232 1018.98 445.898 1020.44 446.004 1022C446.004 1026 443.004 1029 440.004 1029ZM395.004 1029H378.004C375.004 1029 372.004 1026 372.004 1022C372.109 1020.44 372.775 1018.98 373.878 1017.87C374.981 1016.77 376.447 1016.11 378.004 1016H395.004C399.004 1016 402.004 1019 402.004 1022C402.026 1022.93 401.859 1023.85 401.515 1024.7C401.171 1025.56 400.657 1026.34 400.002 1027C399.348 1027.65 398.567 1028.17 397.708 1028.51C396.849 1028.86 395.929 1029.02 395.004 1029V1029ZM409.004 1062C405.004 1062 403.004 1059 403.004 1055V1038C403.004 1036.41 403.636 1034.88 404.761 1033.76C405.886 1032.63 407.412 1032 409.004 1032C410.595 1032 412.121 1032.63 413.246 1033.76C414.372 1034.88 415.004 1036.41 415.004 1038V1055C415.004 1059 413.004 1062 409.004 1062ZM409.004 1016C405.004 1016 403.004 1013 403.004 1009V992C403.004 990.409 403.636 988.883 404.761 987.757C405.886 986.632 407.412 986 409.004 986C410.595 986 412.121 986.632 413.246 987.757C414.372 988.883 415.004 990.409 415.004 992V1009C415.004 1013 413.004 1016 409.004 1016ZM237.004 1089C242.004 1105 250.004 1113 266.004 1118C250.004 1123 242.004 1131 237.004 1146C232.004 1131 224.004 1123 209.004 1118C224.004 1113 232.004 1105 237.004 1089Z" fill="#B48BF7"/>
<path d="M351.002 823C347.002 841 341.002 847 323.002 851C318.002 852 315.002 856 315.002 862C314.902 864.352 315.657 866.661 317.127 868.5C318.598 870.338 320.685 871.582 323.002 872C341.002 876 347.002 882 351.002 900C351.596 902.498 352.995 904.732 354.982 906.358C356.969 907.984 359.436 908.912 362.002 909C367.002 909 371.002 905 373.002 900C377.002 882 383.002 876 401.002 872C403.319 871.582 405.406 870.338 406.876 868.5C408.347 866.661 409.102 864.352 409.002 862C409.002 856 406.002 852 401.002 851C383.002 847 377.002 841 373.002 823C371.002 818 367.002 814 362.002 814C359.436 814.088 356.969 815.016 354.982 816.642C352.995 818.268 351.596 820.502 351.002 823V823ZM160.002 950H177.002C180.002 950 183.002 953 183.002 957C182.897 958.557 182.231 960.022 181.127 961.125C180.024 962.229 178.559 962.895 177.002 963H160.002C156.002 963 153.002 960 153.002 957C152.98 956.075 153.146 955.155 153.49 954.296C153.834 953.436 154.349 952.656 155.003 952.001C155.658 951.347 156.438 950.832 157.297 950.488C158.157 950.144 159.077 949.978 160.002 950V950ZM204.002 950H221.002C221.927 949.978 222.847 950.144 223.706 950.488C224.566 950.832 225.346 951.347 226 952.001C226.655 952.656 227.17 953.436 227.514 954.296C227.858 955.155 228.024 956.075 228.002 957C228.002 960 225.002 963 221.002 963H204.002C200.002 963 197.002 960 197.002 957C196.98 956.075 197.146 955.155 197.49 954.296C197.834 953.436 198.349 952.656 199.003 952.001C199.658 951.347 200.438 950.832 201.297 950.488C202.157 950.144 203.077 949.978 204.002 950V950ZM190.002 917C190.927 916.978 191.847 917.144 192.706 917.488C193.566 917.832 194.346 918.347 195 919.001C195.655 919.656 196.17 920.436 196.514 921.296C196.858 922.155 197.024 923.075 197.002 924V941C197.024 941.925 196.858 942.845 196.514 943.704C196.17 944.564 195.655 945.344 195 945.999C194.346 946.653 193.566 947.168 192.706 947.512C191.847 947.856 190.927 948.022 190.002 948C187.002 948 184.002 945 184.002 941V924C184.002 920 187.002 917 190.002 917ZM190.002 963C190.927 962.978 191.847 963.144 192.706 963.488C193.566 963.832 194.346 964.347 195 965.001C195.655 965.656 196.17 966.436 196.514 967.296C196.858 968.155 197.024 969.075 197.002 970V987C197.002 990 194.002 993 190.002 993C188.445 992.895 186.98 992.229 185.876 991.125C184.773 990.022 184.107 988.557 184.002 987V970C184.002 966 187.002 963 190.002 963ZM362.002 890C357.002 875 349.002 867 333.002 862C349.002 857 357.002 849 362.002 833C367.002 849 375.002 857 391.002 862C375.002 867 367.002 875 362.002 890Z" fill="#B48BF7"/>
<path d="M555 481.38C600 467.38 613 451.38 626 435.38C638 420.38 644 411.38 651 414.38C659 417.38 666 431.38 682 457.38C698 482.38 706 496.38 706 501.38C706 507.38 691 529.38 669 549.38C646 569.38 605 581.38 582 592.38C558 603.38 543 613.38 534 621.38C525 629.38 516 633.38 505 624.38C495 614.38 480 592.38 468 571.38C455 551.38 452 540.38 462 527.38C473 514.38 505 497.38 555 481.38Z" fill="#B48BF7"/>
<path d="M634 438.38C634 438.38 640 455.38 660 448.38L687 488.38C687 488.38 675 500.38 682 517.38C682 517.38 668 541.38 632 558.38C597 575.38 560 584.38 547 597.38C547 597.38 533 577.38 512 597.38C512 597.38 490 576.38 482 558.38C482 558.38 500 549.38 493 524.38C513.931 510.996 536.435 500.248 560 492.38C598 479.38 624 454.38 634 438.38Z" fill="#EEE5FD"/>
<path d="M612 513.38C622 527.38 621 545.38 610 553.38C598 561.38 581 556.38 571 541.38C561 527.38 562 509.38 573 501.38C584 493.38 602 499.38 612 513.38Z" fill="#B48BF7"/>
<path d="M478 330.38C509 320.38 518 309.38 527 298.38C536 287.38 539 281.38 545 283.38C550 285.38 555 295.38 566 313.38C577 331.38 583 340.38 583 344.38C583 348.38 573 363.38 557 377.38C541 391.38 513 399.38 496 407.38C480 415.38 469 422.38 463 427.38C457 432.38 450 436.38 443 429.38C436 422.38 426 407.38 417 393.38C408 378.38 406 371.38 413 362.38C420 353.38 443 341.38 478 330.38Z" fill="#B48BF7"/>
<path d="M533 300.38C533 300.38 537 312.38 551 307.38L570 335.38C567.38 337.912 565.594 341.183 564.879 344.756C564.165 348.329 564.556 352.035 566 355.38C566 355.38 556 372.38 531 384.38C507 396.38 481 402.38 472 410.38C472 410.38 463 397.38 448 410.38C448 410.38 432 396.38 427 384.38C427 384.38 439 377.38 435 360.38C449.439 351.042 464.866 343.329 481 337.38C508 328.38 525 311.38 533 300.38Z" fill="#EEE5FD"/>
<path d="M517 352.38C524 362.38 523 374.38 516 380.38C508 385.38 496 382.38 489 372.38C482 362.38 483 349.38 490 344.38C498 338.38 510 342.38 517 352.38Z" fill="#B48BF7"/>
<path d="M1916 707.38C1921 689.38 1926 683.38 1945 679.38C1950 678.38 1953 673.38 1953 668.38C1953.1 666.028 1952.35 663.719 1950.87 661.88C1949.4 660.042 1947.32 658.798 1945 658.38C1926 654.38 1921 648.38 1916 630.38C1915 625.38 1911 621.38 1906 621.38C1903.43 621.468 1900.97 622.396 1898.98 624.022C1896.99 625.648 1895.59 627.882 1895 630.38C1891 648.38 1885 654.38 1867 658.38C1864.68 658.798 1862.6 660.042 1861.13 661.88C1859.65 663.719 1858.9 666.028 1859 668.38C1859 673.38 1862 678.38 1867 679.38C1885 683.38 1891 689.38 1895 707.38C1895.59 709.878 1896.99 712.112 1898.98 713.738C1900.97 715.364 1903.43 716.292 1906 716.38C1911 716.38 1915 712.38 1916 707.38ZM2108 580.38H2091C2090.07 580.402 2089.15 580.236 2088.3 579.892C2087.44 579.548 2086.66 579.033 2086 578.379C2085.35 577.724 2084.83 576.944 2084.49 576.084C2084.14 575.225 2083.98 574.305 2084 573.38C2084 569.38 2087 567.38 2091 567.38H2108C2112 567.38 2115 569.38 2115 573.38C2115.02 574.305 2114.86 575.225 2114.51 576.084C2114.17 576.944 2113.65 577.724 2113 578.379C2112.34 579.033 2111.56 579.548 2110.7 579.892C2109.85 580.236 2108.93 580.402 2108 580.38V580.38ZM2064 580.38H2047C2046.07 580.402 2045.15 580.236 2044.3 579.892C2043.44 579.548 2042.66 579.033 2042 578.379C2041.35 577.724 2040.83 576.944 2040.49 576.084C2040.14 575.225 2039.98 574.305 2040 573.38C2040 569.38 2043 567.38 2047 567.38H2064C2064.8 567.346 2065.59 567.478 2066.34 567.767C2067.08 568.057 2067.75 568.498 2068.32 569.062C2068.88 569.626 2069.32 570.301 2069.61 571.044C2069.9 571.788 2070.03 572.583 2070 573.38C2070 577.38 2067 580.38 2064 580.38ZM2077 612.38C2076.2 612.414 2075.41 612.282 2074.66 611.993C2073.92 611.703 2073.25 611.262 2072.68 610.698C2072.12 610.134 2071.68 609.459 2071.39 608.716C2071.1 607.972 2070.97 607.177 2071 606.38V589.38C2071 585.38 2074 582.38 2077 582.38C2077.93 582.358 2078.85 582.524 2079.7 582.868C2080.56 583.212 2081.34 583.727 2082 584.381C2082.65 585.036 2083.17 585.816 2083.51 586.676C2083.86 587.535 2084.02 588.455 2084 589.38V606.38C2084 610.38 2081 612.38 2077 612.38ZM2077 567.38C2074 567.38 2071 564.38 2071 560.38V543.38C2070.97 542.583 2071.1 541.788 2071.39 541.044C2071.68 540.301 2072.12 539.626 2072.68 539.062C2073.25 538.498 2073.92 538.057 2074.66 537.767C2075.41 537.478 2076.2 537.346 2077 537.38C2081 537.38 2084 539.38 2084 543.38V560.38C2084.02 561.305 2083.86 562.225 2083.51 563.084C2083.17 563.944 2082.65 564.724 2082 565.379C2081.34 566.033 2080.56 566.548 2079.7 566.892C2078.85 567.236 2077.93 567.402 2077 567.38V567.38ZM1906 640.38C1911 655.38 1919 663.38 1934 668.38C1919 673.38 1911 681.38 1906 697.38C1901 681.38 1893 673.38 1877 668.38C1893 663.38 1901 655.38 1906 640.38Z" fill="#B48BF7"/>
<path d="M1941 381.38C1937 399.38 1931 404.38 1913 409.38C1908 410.38 1904 414.38 1904 419.38C1904.09 421.946 1905.02 424.413 1906.64 426.4C1908.27 428.387 1910.5 429.786 1913 430.38C1931 434.38 1937 440.38 1941 458.38C1942 463.38 1946 467.38 1951 467.38C1953.57 467.292 1956.03 466.364 1958.02 464.738C1960.01 463.112 1961.41 460.878 1962 458.38C1966 440.38 1972 434.38 1990 430.38C1992.5 429.786 1994.73 428.387 1996.36 426.4C1997.98 424.413 1998.91 421.946 1999 419.38C1999 414.38 1995 410.38 1990 409.38C1972 404.38 1966 399.38 1962 381.38C1961.41 378.882 1960.01 376.648 1958.02 375.022C1956.03 373.396 1953.57 372.468 1951 372.38C1946 372.38 1942 376.38 1941 381.38ZM1749 508.38H1766C1766.93 508.358 1767.85 508.524 1768.7 508.868C1769.56 509.212 1770.34 509.727 1771 510.381C1771.65 511.036 1772.17 511.816 1772.51 512.676C1772.86 513.535 1773.02 514.455 1773 515.38C1773 518.38 1770 521.38 1766 521.38H1749C1747.44 521.275 1745.98 520.609 1744.87 519.506C1743.77 518.402 1743.11 516.937 1743 515.38C1743 511.38 1746 508.38 1749 508.38ZM1793 508.38H1810C1810.93 508.358 1811.85 508.524 1812.7 508.868C1813.56 509.212 1814.34 509.727 1815 510.381C1815.65 511.036 1816.17 511.816 1816.51 512.676C1816.86 513.535 1817.02 514.455 1817 515.38C1817 518.38 1814 521.38 1810 521.38H1793C1791.44 521.275 1789.98 520.609 1788.87 519.506C1787.77 518.402 1787.11 516.937 1787 515.38C1787 511.38 1790 508.38 1793 508.38ZM1780 475.38C1783 475.38 1786 478.38 1786 482.38V499.38C1785.89 500.937 1785.23 502.402 1784.13 503.506C1783.02 504.609 1781.56 505.275 1780 505.38C1776 505.38 1773 502.38 1773 499.38V482.38C1772.98 481.455 1773.14 480.535 1773.49 479.676C1773.83 478.816 1774.35 478.036 1775 477.381C1775.66 476.727 1776.44 476.212 1777.3 475.868C1778.15 475.524 1779.07 475.358 1780 475.38ZM1780 521.38C1781.56 521.485 1783.02 522.151 1784.13 523.254C1785.23 524.358 1785.89 525.823 1786 527.38V545.38C1785.89 546.937 1785.23 548.402 1784.13 549.506C1783.02 550.609 1781.56 551.275 1780 551.38C1776 551.38 1773 548.38 1773 545.38V527.38C1773 524.38 1776 521.38 1780 521.38ZM1951 448.38C1946 432.38 1938 424.38 1923 419.38C1938 414.38 1946 406.38 1951 391.38C1956 406.38 1964 414.38 1980 419.38C1964 424.38 1956 432.38 1951 448.38Z" fill="#B48BF7"/>
<path d="M1232 139.38C1278 125.38 1291 108.38 1303 93.38C1316 77.38 1321 69.38 1329 72.38C1336 74.38 1343 88.38 1360 114.38C1376 140.38 1384 154.38 1384 159.38C1384 165.38 1369 187.38 1346 207.38C1324 227.38 1282 239.38 1259 250.38C1235 261.38 1220 271.38 1211 279.38C1202 287.38 1193 292.38 1182 282.38C1172 272.38 1157 250.38 1145 229.38C1132 209.38 1128 198.38 1139 185.38C1149 172.38 1182 155.38 1232 139.38Z" fill="#B48BF7"/>
<path d="M1312 96.38C1312 96.38 1318 112.38 1338 106.38L1365 146.38C1365 146.38 1352 158.38 1360 175.38C1360 175.38 1345 199.38 1309 216.38C1274 234.38 1237 242.38 1224 255.38C1224 255.38 1210 236.38 1189 255.38C1189 255.38 1167 234.38 1158 216.38C1158 216.38 1177 207.38 1170 182.38C1190.93 168.996 1213.43 158.248 1237 150.38C1276 137.38 1301 112.38 1312 96.38Z" fill="#EEE5FD"/>
<path d="M1289 171.38C1299 185.38 1298 203.38 1287 211.38C1276 219.38 1258 214.38 1248 199.38C1238 185.38 1239 167.38 1250 159.38C1262 151.38 1279 156.38 1289 171.38Z" fill="#B48BF7"/>
<path d="M1474 368.38C1325 492.38 1506 587.38 1586 506.38C1630 461.38 1584 401.38 1573 390.38C1564 382.38 1550 371.38 1546 368.38H1474ZM1542 355.38C1542 355.38 1555 347.38 1559 335.38C1563 324.38 1561 302.38 1544 300.38C1528 297.38 1476 295.38 1471 311.38C1466 328.38 1481 355.38 1481 355.38H1542Z" fill="#B48BF7"/>
<path d="M1515 443.38C1503 439.38 1498 435.38 1498 428.38C1498 423.38 1502 417.38 1513 417.38C1518.57 417.438 1524.05 418.809 1529 421.38L1533 412.38C1527.76 409.644 1521.91 408.268 1516 408.38V395.38H1507V408.38C1495 410.38 1487 419.38 1487 430.38C1487 441.38 1495 448.38 1509 453.38C1519 457.38 1524 462.38 1524 469.38C1524 477.38 1518 482.38 1508 482.38C1501 482.38 1494 479.38 1489 476.38L1486 485.38C1490 489.38 1499 491.38 1506 491.38V505.38H1515V491.38C1528 488.38 1536 479.38 1536 468.38C1536 456.38 1529 449.38 1515 443.38Z" fill="#FEFEFE"/>
<path d="M1039 51.38C1074 40.38 1083 27.38 1093 16.38C1102 4.37998 1107 -1.62002 1112 0.379977C1118 2.37998 1123 12.38 1136 32.38C1148 51.38 1154 62.38 1154 66.38C1154 70.38 1143 87.38 1126 102.38C1109 117.38 1077 126.38 1059 135.38C1042 143.38 1030 151.38 1023 157.38C1016 162.38 1009 166.38 1001 159.38C993 151.38 982 135.38 973 119.38C964 103.38 961 95.38 969 85.38C977 76.38 1001 62.38 1039 51.38Z" fill="#B48BF7"/>
<path d="M1100 18.38C1100 18.38 1104 31.38 1119 26.38L1140 56.38C1140 56.38 1130 65.38 1136 78.38C1136 78.38 1125 96.38 1098 109.38C1071 122.38 1043 129.38 1033 138.38C1033 138.38 1023 124.38 1007 138.38C1007 138.38 990 123.38 984 109.38C984 109.38 997 102.38 992 83.38C1007.98 73.368 1025.1 65.3104 1043 59.38C1065.58 51.5419 1085.39 37.2946 1100 18.38V18.38Z" fill="#EEE5FD"/>
<path d="M1082 75.38C1090 85.38 1089 99.38 1081 105.38C1072 111.38 1059 107.38 1051 96.38C1044 85.38 1045 72.38 1053 66.38C1062 60.38 1075 64.38 1082 75.38Z" fill="#B48BF7"/>
<path d="M938 1499.38H1334C1344.49 1499.38 1353 1502.96 1353 1507.38V1507.9C1353 1512.32 1344.49 1515.9 1334 1515.9H938C927.51 1515.9 919 1512.32 919 1507.9V1507.38C919 1502.96 927.51 1499.38 938 1499.38Z" fill="#FEFEFE"/>
<path d="M976 1569.38H1306.69C1315.53 1569.38 1322.69 1572.96 1322.69 1577.38V1577.9C1322.69 1582.32 1315.53 1585.9 1306.69 1585.9H976C967.16 1585.9 960 1582.32 960 1577.9V1577.38C960 1572.96 967.16 1569.38 976 1569.38Z" fill="#FEFEFE"/>
<path d="M701 113.38C616 130.38 549 153.38 497 180.38C512 189.38 688 319.38 728 334.38C769 349.38 830 422.38 840 481.38C849 540.38 1071 859.38 1079 858.38C1088 858.38 1100 821.38 1098 777.38C1095 733.38 1043 647.38 1047 601.38C1050 555.38 1127 534.38 1166 552.38C1204 571.38 1233 685.38 1206 716.38C1197 725.38 1194 738.38 1195 750.38C1210.71 754.389 1225.16 762.3 1237 773.38C1261 754.38 1300 741.38 1301 702.38C1302 656.38 1253 506.38 1234 453.38C1214 400.38 1133 373.38 972 298.38C859 246.38 755 160.38 701 113.38Z" fill="#FFCDC0"/>
</g>
<defs>
<clipPath id="clip0">
<rect width="2115" height="1728.38" fill="white"/>
</clipPath>
</defs>
</svg>
